<svg width="606" height="111" viewBox="0 0 606 111" fill="none" xmlns="http://www.w3.org/2000/svg">
<path d="M106.399 66.5068C110.826 66.5068 113.978 70.0462 113.439 74.4126L111.744 88.1236C110.253 100.196 98.9188 109.982 86.6784 109.982H4.30468C1.82232 109.982 -0.1 107.823 0.202542 105.375L1.8887 91.7299C2.14315 89.6708 3.90307 88.1236 5.99084 88.1236H85.1437C87.3571 88.1233 89.3701 86.3533 89.6399 84.1703L91.8224 66.5068H106.399Z" fill="white"/>
<path d="M91.8224 66.5068H27.6704C25.1881 66.5068 23.5513 63.6891 23.8538 61.2409L25.6109 47.0165C25.8653 44.9573 27.4931 42.8295 29.5809 42.8295H94.7485L91.8224 66.5068Z" fill="white"/>
<path d="M100.267 0.0129395C112.507 0.0129395 121.423 9.7993 119.932 21.8714L118.318 34.9237C117.779 39.2901 113.752 42.8294 109.325 42.8295H94.7485L96.8493 25.8248C97.119 23.6417 95.5433 21.8716 93.3298 21.8714H62.4336L71.6304 10.9422L65.1348 0.0129395H100.267Z" fill="white"/>
<path d="M45.2076 16.781C51.1253 16.5146 55.829 17.0465 55.9819 17.3405C56.1346 17.6347 56.0126 18.3292 55.7105 18.8906C55.2138 19.7983 54.1848 19.821 45.2076 19.1072C39.7318 18.6658 35.0116 18.1943 34.7239 18.0464C34.433 17.9048 39.2956 17.0473 45.2076 16.781Z" fill="white"/>
<path d="M41.8153 9.99519C50.1139 9.65733 56.2728 10.2643 56.2857 10.5767C56.298 10.8829 55.9837 11.5151 55.5904 11.9844C55.0069 12.6786 52.2407 12.7273 40.55 12.2581C32.6768 11.9405 26.2316 11.5775 26.2169 11.456C26.2119 11.3349 33.5504 10.3317 41.8153 9.99519Z" fill="white"/>
<path d="M37.0174 2.13151C59.7095 1.13093 59.7924 1.13371 58.6367 2.42629C57.2116 4.01726 57.4481 4.70787 33.0328 4.20095L14.2367 3.13515L37.0174 2.13151Z" fill="white"/>
<path d="M221.979 62.097C221.664 64.6537 221.915 66.8568 222.733 68.7064C223.606 70.5562 224.916 71.9988 226.661 73.0325C228.468 74.0118 230.529 74.5008 232.843 74.5008C235.211 74.5008 237.365 74.0118 239.304 73.0325C241.249 71.9988 242.859 70.5562 244.134 68.7064C245.464 66.8567 246.284 64.6809 246.593 62.1785L250.982 26.5957H262.304L257.953 61.8511C257.41 66.2581 255.903 70.2038 253.435 73.6859C250.974 77.1131 247.857 79.8335 244.084 81.8464C240.371 83.805 236.201 84.7843 231.573 84.7843C227.001 84.7843 223.046 83.805 219.707 81.8464C216.43 79.8333 213.987 77.085 212.379 73.603C210.77 70.121 210.238 66.1765 210.782 61.7697L215.122 26.5957H226.359L221.979 62.097Z" fill="white"/>
<path d="M532.116 25.6979C536.082 25.6979 539.572 26.432 542.586 27.901C545.6 29.3699 547.981 31.2745 549.73 33.6139L541.387 40.9595C539.908 39.1099 538.313 37.7498 536.603 36.8792C534.948 36.0088 532.991 35.5726 530.732 35.5725C528.143 35.5725 526.044 36.0629 524.436 37.0422C522.828 38.0215 521.91 39.4357 521.681 41.2855C521.487 42.8632 521.825 44.1419 522.695 45.1212C523.566 46.1006 524.757 46.9444 526.268 47.6517C527.833 48.3589 529.539 49.0391 531.386 49.6919C533.288 50.3447 535.153 51.079 536.98 51.895C538.863 52.711 540.523 53.7718 541.959 55.0774C543.45 56.3832 544.565 58.0709 545.301 60.1384C546.044 62.1513 546.231 64.6536 545.862 67.6456C545.204 72.9774 542.786 77.1669 538.61 80.2137C534.433 83.2605 529.039 84.7843 522.428 84.7843C517.746 84.7843 513.822 83.9959 510.657 82.4182C507.546 80.8404 504.836 78.4727 502.526 75.3171L510.87 67.9729C512.302 70.2033 514.071 71.9443 516.175 73.1955C518.285 74.3923 520.966 74.9911 524.216 74.9911C527.135 74.9911 529.519 74.4194 531.368 73.277C533.271 72.1344 534.347 70.5565 534.595 68.5434C534.81 66.8025 534.49 65.3882 533.632 64.3001C532.775 63.212 531.566 62.2869 530.008 61.5252C528.504 60.7636 526.798 60.0834 524.889 59.485C523.042 58.8322 521.177 58.0979 519.295 57.2819C517.468 56.4658 515.802 55.458 514.297 54.2611C512.854 53.0098 511.753 51.4329 510.997 49.5289C510.247 47.5702 510.053 45.1213 510.415 42.1833C510.845 38.7012 512.065 35.7363 514.075 33.2879C516.085 30.8397 518.657 28.9623 521.793 27.6565C524.929 26.3507 528.37 25.6979 532.116 25.6979Z" fill="white"/>
<path fill-rule="evenodd" clip-rule="evenodd" d="M183.073 26.5957C186.929 26.5957 190.064 27.3029 192.478 28.7173C194.955 30.0775 196.713 31.9007 197.753 34.1858C198.8 36.4162 199.16 38.8643 198.831 41.5299C198.428 44.7942 197.06 47.624 194.726 50.0178C193.509 51.2708 192.044 52.3497 190.332 53.2593C192.479 54.3878 194.183 55.836 195.442 57.6079C197.475 60.3282 198.253 63.6198 197.776 67.4826C197.4 70.5294 196.287 73.3047 194.435 75.8075C192.646 78.2556 190.198 80.2416 187.09 81.7649C184.044 83.2339 180.455 83.968 176.324 83.968H152.526L159.606 26.5957H183.073ZM164.799 74.9097H177.028C179.728 74.9097 181.922 74.0929 183.611 72.4607C185.355 70.8285 186.364 68.8968 186.64 66.6662C186.828 65.143 186.668 63.7557 186.161 62.5045C185.718 61.4096 184.996 60.5231 183.995 59.8447L183.326 59.4274C182.188 58.758 180.767 58.4242 179.063 58.4242H166.834L164.799 74.9097ZM167.941 49.4474H178.932C181.245 49.4473 183.16 48.8755 184.678 47.7332C186.252 46.5907 187.18 44.8759 187.461 42.5908C187.75 40.2515 187.249 38.5107 185.958 37.3682C184.722 36.2257 182.947 35.6541 180.633 35.654H169.644L167.941 49.4474Z" fill="white"/>
<path d="M281.689 83.968H270.452L277.531 26.5957H288.769L281.689 83.968Z" fill="white"/>
<path d="M310.198 74.0933H336.806L335.587 83.968H297.742L304.822 26.5957H316.06L310.198 74.0933Z" fill="white"/>
<path d="M391.239 36.4704H372.73L366.87 83.968H355.549L361.41 36.4704H342.901L344.12 26.5957H392.458L391.239 36.4704Z" fill="white"/>
<path d="M442.059 36.3889H414.378L412.625 50.5897H438.902L437.684 60.4644H411.408L408.508 83.968H397.27L404.348 26.5957H443.268L442.059 36.3889Z" fill="white"/>
<path fill-rule="evenodd" clip-rule="evenodd" d="M495.891 83.968H483.909L481.139 73.277H457.233L451.767 83.968H440.033L470.497 26.5957H479.669L495.891 83.968ZM461.988 63.9728H478.727L473.096 42.2423L461.988 63.9728Z" fill="white"/>
<path d="M604.576 36.4704H586.067L580.207 83.968H568.887L574.747 36.4704H556.238L557.457 26.5957H605.795L604.576 36.4704Z" fill="white"/>
</svg>
