<svg width="607" height="112" viewBox="0 0 607 112" fill="none" xmlns="http://www.w3.org/2000/svg">
<path d="M106.757 67.2988C111.184 67.2988 114.336 70.8382 113.797 75.2046L112.103 88.9156C110.611 100.988 99.2773 110.774 87.0371 110.774H4.66448C2.18216 110.774 0.259867 108.615 0.562405 106.167L2.24854 92.5219C2.50299 90.4628 4.26289 88.9156 6.35062 88.9156H85.5024C87.7158 88.9153 89.7288 87.1453 89.9985 84.9622L92.181 67.2988H106.757Z" fill="#1DC9D8"/>
<path d="M92.181 67.2988H28.0299C25.5476 67.2988 23.9109 64.4811 24.2133 62.0329L25.9704 47.8085C26.2248 45.7493 27.8525 43.6215 29.9404 43.6215H95.1071L92.181 67.2988Z" fill="#1DC9D8"/>
<path d="M100.625 0.804932C112.865 0.804932 121.781 10.5913 120.29 22.6634L118.677 35.7157C118.137 40.0821 114.11 43.6214 109.683 43.6215H95.1071L97.2079 26.6168C97.4775 24.4337 95.9019 22.6636 93.6885 22.6634H62.7927L71.9893 11.7342L65.4938 0.804932H100.625Z" fill="#1DC9D8"/>
<path d="M45.5669 17.573C51.4844 17.3065 56.1881 17.8385 56.3411 18.1325C56.4937 18.4267 56.3717 19.1212 56.0696 19.6826C55.5729 20.5903 54.544 20.613 45.5669 19.8991C40.0911 19.4578 35.371 18.9863 35.0833 18.8384C34.7924 18.6968 39.6549 17.8393 45.5669 17.573Z" fill="#1DC9D8"/>
<path d="M42.1746 10.7872C50.4731 10.4493 56.6319 11.0563 56.6448 11.3687C56.6571 11.6749 56.3428 12.3071 55.9496 12.7764C55.366 13.4706 52.5999 13.5193 40.9093 13.0501C33.0362 12.7325 26.5911 12.3695 26.5764 12.248C26.5714 12.1269 33.9098 11.1237 42.1746 10.7872Z" fill="#1DC9D8"/>
<path d="M37.3768 2.9235C60.0686 1.92292 60.1515 1.9257 58.9958 3.21828C57.5707 4.80926 57.8072 5.49987 33.3922 4.99295L14.5964 3.92714L37.3768 2.9235Z" fill="#1DC9D8"/>
<path d="M222.337 62.889C222.022 65.4457 222.273 67.6488 223.091 69.4984C223.964 71.3482 225.274 72.7908 227.019 73.8245C228.826 74.8038 230.887 75.2928 233.201 75.2928C235.57 75.2928 237.723 74.8038 239.662 73.8245C241.607 72.7908 243.218 71.3482 244.493 69.4984C245.822 67.6487 246.642 65.4729 246.951 62.9705L251.341 27.3877H262.662L258.312 62.6431C257.768 67.0501 256.261 70.9958 253.793 74.4778C251.332 77.9051 248.215 80.6254 244.442 82.6384C240.73 84.597 236.559 85.5763 231.931 85.5763C227.359 85.5762 223.404 84.597 220.065 82.6384C216.788 80.6253 214.345 77.877 212.737 74.395C211.129 70.913 210.596 66.9685 211.14 62.5616L215.48 27.3877H226.717L222.337 62.889Z" fill="#161F27"/>
<path d="M532.474 26.4899C536.44 26.4899 539.93 27.224 542.944 28.693C545.958 30.1619 548.339 32.0665 550.089 34.4059L541.745 41.7515C540.266 39.9019 538.672 38.5418 536.961 37.6712C535.306 36.8008 533.349 36.3646 531.09 36.3645C528.501 36.3645 526.402 36.8549 524.794 37.8342C523.186 38.8135 522.268 40.2277 522.04 42.0775C521.845 43.6552 522.183 44.9339 523.053 45.9132C523.924 46.8926 525.115 47.7364 526.626 48.4437C528.191 49.1509 529.897 49.8311 531.744 50.4839C533.646 51.1367 535.511 51.871 537.338 52.687C539.221 53.503 540.881 54.5638 542.317 55.8694C543.809 57.1752 544.923 58.8629 545.659 60.9304C546.402 62.9433 546.589 65.4456 546.22 68.4376C545.562 73.7694 543.145 77.9589 538.968 81.0057C534.791 84.0525 529.397 85.5763 522.786 85.5763C518.104 85.5763 514.18 84.7879 511.015 83.2102C507.904 81.6324 505.194 79.2647 502.885 76.1091L511.228 68.7649C512.66 70.9953 514.429 72.7362 516.533 73.9875C518.644 75.1843 521.324 75.7831 524.574 75.7831C527.493 75.7831 529.877 75.2114 531.726 74.069C533.63 72.9264 534.705 71.3484 534.954 69.3354C535.168 67.5945 534.848 66.1802 533.991 65.0921C533.133 64.004 531.925 63.0789 530.366 62.3172C528.863 61.5556 527.157 60.8754 525.248 60.277C523.4 59.6242 521.535 58.8899 519.653 58.0739C517.826 57.2578 516.16 56.25 514.655 55.0531C513.212 53.8018 512.112 52.2249 511.355 50.3209C510.605 48.3622 510.411 45.9133 510.773 42.9753C511.203 39.4932 512.423 36.5283 514.433 34.0799C516.443 31.6316 519.015 29.7543 522.151 28.4485C525.287 27.1427 528.728 26.4899 532.474 26.4899Z" fill="#161F27"/>
<path fill-rule="evenodd" clip-rule="evenodd" d="M183.431 27.3877C187.287 27.3877 190.422 28.0949 192.836 29.5093C195.313 30.8695 197.071 32.6926 198.112 34.9778C199.158 37.2082 199.518 39.6563 199.189 42.3219C198.786 45.5862 197.418 48.416 195.084 50.8098C193.868 52.0628 192.402 53.1417 190.69 54.0513C192.837 55.1798 194.541 56.628 195.8 58.3999C197.833 61.1202 198.611 64.4118 198.134 68.2746C197.758 71.3214 196.645 74.0967 194.793 76.5995C193.004 79.0476 190.556 81.0335 187.448 82.5569C184.403 84.0259 180.813 84.76 176.682 84.76H152.884L159.964 27.3877H183.431ZM165.157 75.7016H177.386C180.086 75.7016 182.28 74.8849 183.969 73.2526C185.713 71.6205 186.723 69.6888 186.998 67.4582C187.186 65.935 187.026 64.5477 186.519 63.2965C186.076 62.2016 185.354 61.3151 184.353 60.6367L183.684 60.2194C182.546 59.55 181.125 59.2162 179.421 59.2162H167.192L165.157 75.7016ZM168.299 50.2394H179.29C181.603 50.2393 183.519 49.6675 185.037 48.5252C186.61 47.3827 187.538 45.6679 187.82 43.3827C188.108 41.0435 187.607 39.3026 186.316 38.1602C185.08 37.0177 183.305 36.4461 180.991 36.446H170.002L168.299 50.2394Z" fill="#161F27"/>
<path d="M282.047 84.76H270.811L277.889 27.3877H289.127L282.047 84.76Z" fill="#161F27"/>
<path d="M310.557 74.8853H337.164L335.945 84.76H298.1L305.18 27.3877H316.418L310.557 74.8853Z" fill="#161F27"/>
<path d="M391.597 37.2624H373.088L367.228 84.76H355.907L361.768 37.2624H343.26L344.478 27.3877H392.816L391.597 37.2624Z" fill="#161F27"/>
<path d="M442.418 37.1809H414.736L412.983 51.3817H439.26L438.042 61.2564H411.766L408.866 84.76H397.628L404.706 27.3877H443.626L442.418 37.1809Z" fill="#161F27"/>
<path fill-rule="evenodd" clip-rule="evenodd" d="M496.25 84.76H484.267L481.497 74.069H457.591L452.125 84.76H440.391L470.855 27.3877H480.027L496.25 84.76ZM462.346 64.7648H479.086L473.455 43.0343L462.346 64.7648Z" fill="#161F27"/>
<path d="M604.934 37.2624H586.425L580.565 84.76H569.245L575.105 37.2624H556.596L557.815 27.3877H606.153L604.934 37.2624Z" fill="#161F27"/>
</svg>
